<svg width="221" height="73" viewBox="0 0 221 73" xmlns="http://www.w3.org/2000/svg" xmlns:xlink="http://www.w3.org/1999/xlink"><defs><path id="a" d="M20.13.335H.275v19.848H20.13z"/><path id="c" d="M158.01.275H.322v7.73H158.01z"/></defs><g fill="none" fill-rule="evenodd"><path d="M40.174 20.165c10.17.22 12.036 10.03 12.036 21.44 0 7.128-4.186 19.414-8.626 24.307-3.36 3.703-4.218 5.06-8.198 5.73-5.522.715-2.368-15.84-9.657-15.296-5.815-.052-3.12 13.92-7.442 15.15-1.826.52-5.95-1.382-10.38-7.093C4.296 59.74 0 47.805 0 41.45c0-11.184.833-19.762 10.714-20.912 5.677.248 8.04 3.374 15.814 3.374 9.13-.543 8.25-3.798 13.646-3.747" fill="#73B944"/><path d="M210.395 49.02c0 .406-.05.76-.15 1.013-.456 1.113-1.517 1.467-2.325 1.467-.86 0-2.122-.81-2.122-2.934 0-2.63 2.324-3.54 4.597-3.59v4.045zm7.68-6.575c0-4.805-.858-10.977-9.498-10.977-3.89 0-7.023 1.214-8.54 2.024l1.365 5.21c1.617-.96 3.284-1.518 5.457-1.518 2.02 0 3.283 1.062 3.283 2.43v.454c-5.608.05-11.672 2.68-11.672 9.358 0 4.452 2.882 7.748 6.823 7.748 2.222 0 4.244-.868 5.71-2.79h.1l.404 2.377h6.973c-.304-1.72-.405-3.692-.405-5.715v-8.6zm-33.66-15.024v4.453h-2.88v5.463h2.88V47.96c0 4.097.86 6.12 2.375 7.486 1.314 1.163 3.133 1.627 5.204 1.627 1.92 0 3.537-.202 4.548-.464v-6.122c-.657.102-1.162.152-1.82.152-1.262 0-2.475-.658-2.475-3.39v-9.914h4.9v-5.463h-4.9v-6.728l-7.832 2.276zm-25.323 29.34h7.832V41.84c0-1.01.202-1.87.404-2.327.455-.96 1.11-1.466 1.97-1.466 1.566 0 2.022 1.62 2.022 3.34V56.76h7.83V41.13c0-5.362-1.616-9.662-6.87-9.662-2.578 0-4.8 1.265-6.165 3.238h-.1l-.405-2.833h-6.72c.1 2.53.202 5.31.202 7.942V56.76zm-15.37-14.618c0-2.125.707-5.06 2.678-5.06 2.02 0 2.425 2.63 2.425 5.06h-5.103zm11.874 5.412c.15-.76.253-1.87.253-3.996 0-8.346-3.59-12.09-9.046-12.09-5.86 0-10.61 4.958-10.61 13.456 0 7.84 3.992 12.15 11.116 12.15 2.728 0 5.557-.465 7.376-1.122l-.96-5.565c-1.313.405-3.03.81-5.002.81-2.98 0-4.9-1.366-5.002-3.643h11.874zm-30.427.456c0 .657-.102 1.163-.253 1.517-.354.91-.96 1.265-1.668 1.265-1.415 0-2.678-1.72-2.678-6.222 0-3.642.757-6.526 2.677-6.526 1.11 0 1.566 1.012 1.818 2.074.1.456.1.962.1 1.366v6.526zm0-26.254v12.04h-.102c-.505-1.114-1.667-2.328-4.042-2.328-4.345 0-8.185 4.3-8.185 12.9 0 6.373 2.174 12.806 7.934 12.806 2.122 0 4.194-1.324 5.153-3.094h.1l.405 2.68h6.72c-.1-2.63-.202-5.31-.202-7.94V21.755h-7.78zm-23.353.91c-.606 4.25-1.97 8.448-3.596 13.203l3.9-.507c2.526-4.25 4.648-8.448 6.164-13.203l-6.467.506zM88.215 56.76h7.832V21.757h-7.832V56.76zM72.34 44.015l1.01-6.476c.304-1.82.81-5.615 1.163-7.74h.1c.304 2.125.76 5.818 1.01 7.74l.86 6.476H72.34zm4.75 6.02l1.11 6.727h7.58l-6.215-34.094h-9.498L62.842 56.76h7.578l1.162-6.727h5.508z" fill="#335A36"/><path d="M24.438 20.414s-.178-7.562 4.467-13.443C33.268 1.45 43.125-.14 43.975.8c.876.973.188 10.893-5.09 15.176-6.37 5.17-14.447 4.438-14.447 4.438" fill="#89C540"/><g transform="translate(24.13 .138)"><mask id="b" fill="#fff"><use xlink:href="#a"/></mask><path d="M.275 20.147s-.008-.33.022-.906L19.33.336c.234.043.4.11.48.2.878.972.19 10.89-5.088 15.175C8.352 20.88.275 20.147.275 20.147" fill="#00A550" mask="url(#b)"/></g><g transform="translate(61.978 61.717)"><mask id="d" fill="#fff"><use xlink:href="#c"/></mask><path d="M153.3.398v7.48h1.16v-3.37h.123c.972 0 1.39.603 1.682 1.624.17.664.34 1.282.54 1.746h1.204c-.248-.572-.45-1.36-.62-1.994-.276-1.035-.785-1.947-1.804-2.117l2.33-3.37h-1.327l-1.96 3.246h-.17V.398h-1.16zm-6.266 0v7.48h1.22c.556-1.205 1.235-2.905 1.482-3.524a31.4 31.4 0 0 0 .895-2.58h.032c-.077 1.143-.108 2.04-.108 3.647V7.88h1.096V.398h-1.25l-1.25 3.245c-.325.85-.757 1.917-1.096 2.906h-.032c.077-1.176.093-2.288.093-3.586V.398h-1.08zm-6.25 0v7.48h1.188V4.586h2.207v3.292h1.188V.398h-1.19v3.168h-2.206V.398h-1.188zm-6.267 0v7.48h1.22c.555-1.205 1.234-2.905 1.48-3.524a31.4 31.4 0 0 0 .896-2.58h.03c-.076 1.143-.107 2.04-.107 3.647V7.88h1.096V.398h-1.25l-1.25 3.245c-.325.85-.757 1.917-1.097 2.906h-.03c.077-1.176.092-2.288.092-3.586V.398h-1.08zm-5.62 0v3.43c0 1.376-.06 2.427-.493 2.875-.154.155-.34.294-.633.34l.218.945c.277 0 .556-.06.787-.172 1.11-.54 1.265-1.947 1.265-4.064V1.387h1.637v6.49h1.188V.398h-3.967zm-5.957 0v7.48h1.158v-3.37h.124c.972 0 1.39.603 1.682 1.624.17.664.34 1.282.54 1.746h1.204c-.247-.572-.448-1.36-.617-1.994-.277-1.035-.787-1.947-1.805-2.117l2.33-3.37h-1.327l-1.96 3.246h-.17V.398h-1.158zm-8.29 0l1.73 3.725-1.775 3.755h1.204l.694-1.685c.17-.432.34-.834.494-1.283h.03c.186.495.325.88.495 1.283l.71 1.685h1.296l-1.76-3.787L119.544.4h-1.22l-.678 1.607c-.155.402-.324.835-.494 1.314h-.03c-.17-.45-.31-.882-.495-1.315l-.694-1.607h-1.282zm-5.648 0v7.48h1.22c.555-1.205 1.234-2.905 1.48-3.524a31.4 31.4 0 0 0 .897-2.58h.03c-.077 1.143-.11 2.04-.11 3.647V7.88h1.098V.398h-1.25l-1.25 3.245c-.325.85-.757 1.917-1.097 2.906h-.03c.077-1.176.093-2.288.093-3.586V.398h-1.08zm-5.664 0v7.48h1.157v-3.37h.124c.97 0 1.388.603 1.68 1.624.17.664.34 1.282.542 1.746h1.203c-.247-.572-.447-1.36-.617-1.994-.278-1.035-.787-1.947-1.806-2.117l2.33-3.37h-1.327l-1.96 3.246h-.17V.398h-1.157zm-1.174 6.383c-.277.124-.54.2-.864.2-1.096 0-1.76-1.05-1.76-2.796 0-1.468.54-2.89 1.73-2.89.385 0 .694.124.848.202l.232-.974c-.216-.124-.648-.232-1.05-.232-1.867 0-2.948 1.746-2.948 3.894 0 2.473 1.096 3.79 2.732 3.79.525 0 .972-.127 1.235-.282l-.156-.91zm-8.242-3.415c.047-1.02.448-2.163 1.22-2.163.57 0 1.14.664 1.11 2.163h-2.33zm3.458.88c.015-.184.015-.385.015-.663 0-1.7-.602-3.307-2.13-3.307-1.497 0-2.516 1.514-2.516 3.94 0 2.288.925 3.758 2.715 3.758.587 0 1.22-.126 1.637-.358l-.185-.88c-.294.17-.726.293-1.235.293-.865 0-1.76-.495-1.775-2.782h3.473zM86.9.4v3.044c0 1.376.724 2.056 1.867 2.056.51 0 1.065-.14 1.42-.387h.046v2.8h1.173V.4h-1.188v3.848a2.05 2.05 0 0 1-1.096.34c-.834 0-1.034-.572-1.034-1.33V.4h-1.19zm-6.16 0v7.48h1.22c.556-1.205 1.235-2.905 1.482-3.524a31.4 31.4 0 0 0 .895-2.58h.03c-.077 1.143-.107 2.04-.107 3.647V7.88h1.095V.398h-1.25l-1.25 3.245c-.324.85-.756 1.917-1.096 2.906h-.032c.078-1.176.093-2.288.093-3.586V.398h-1.08zm-4.507 0v7.48h1.174V1.434h2.3V.398h-3.474zm-3.78.835c1.048 0 1.25 1.76 1.25 2.905 0 1.16-.202 2.92-1.22 2.92-1.08 0-1.297-1.684-1.297-2.92 0-1.144.2-2.905 1.266-2.905zm.045-.96c-1.28.002-2.5 1.145-2.5 3.88 0 2.628 1.08 3.85 2.423 3.85 1.143 0 2.486-.975 2.486-3.865 0-2.612-1.08-3.863-2.408-3.863zM64.703.4v3.43c0 1.376-.062 2.427-.494 2.875-.155.155-.34.294-.634.34l.217.945c.277 0 .555-.06.787-.172 1.11-.54 1.265-1.947 1.265-4.064V1.387h1.636v6.49h1.19V.398h-3.967zm-4.075.835c1.05 0 1.25 1.76 1.25 2.905 0 1.16-.2 2.92-1.22 2.92-1.08 0-1.295-1.684-1.295-2.92 0-1.144.2-2.905 1.265-2.905zm.047-.96c-1.28.002-2.5 1.145-2.5 3.88 0 2.628 1.08 3.85 2.423 3.85 1.142 0 2.484-.975 2.484-3.865 0-2.612-1.08-3.863-2.407-3.863zM52.925.4v1.005h1.7v6.475h1.187V1.403h1.7V.398h-4.586zm-2.16 5.13c0 .125 0 .28-.03.418-.14.742-.587 1.128-1.112 1.128-.417 0-.91-.355-.91-1.33 0-1.62 1.435-1.73 2.052-1.73V5.53zm1.174-2.58c0-1.684-.65-2.673-2.147-2.673-.74 0-1.435.262-1.744.494l.26.834a2.245 2.245 0 0 1 1.236-.387c.942 0 1.19.696 1.19 1.7v.232c-1.684.014-3.18.85-3.18 2.72 0 1.28.77 2.134 1.774 2.134.633 0 1.158-.342 1.482-.914h.046l.077.788h1.08c-.076-.48-.076-1.128-.076-1.7v-3.23zm-12.504 4.93h1.096l.123-3.153c.062-1.05.093-2.01.11-3.214h.03c.2.913.462 1.964.77 3l.974 3.322h.863l1.003-3.43c.31-1.098.57-2.103.74-2.876h.047c.03 1.422.062 2.15.108 3.138l.14 3.214h1.127l-.51-7.48h-1.435l-.94 3.292a40.4 40.4 0 0 0-.634 2.38h-.03c-.233-.912-.418-1.515-.68-2.38L41.365.398H39.96l-.524 7.48zM35.9 1.233c1.05 0 1.252 1.76 1.252 2.905 0 1.16-.2 2.92-1.22 2.92-1.08 0-1.296-1.684-1.296-2.92 0-1.144.2-2.905 1.265-2.905zm.048-.96c-1.282.002-2.5 1.145-2.5 3.88 0 2.628 1.08 3.85 2.423 3.85 1.143 0 2.485-.975 2.485-3.865 0-2.612-1.08-3.863-2.407-3.863zM28.198.4v1.005h1.7v6.475h1.187V1.403h1.698V.398H28.2zm-.493 6.383c-.278.124-.54.2-.864.2-1.095 0-1.76-1.05-1.76-2.796 0-1.468.54-2.89 1.73-2.89.386 0 .694.124.85.202l.23-.974C27.674.398 27.242.29 26.84.29c-1.867 0-2.947 1.746-2.947 3.894 0 2.473 1.096 3.79 2.732 3.79.525 0 .972-.127 1.235-.282l-.155-.91zM16.978 3.954c.154-.016.293-.032.493-.032.99 0 1.854.434 1.854 1.53 0 1.083-.833 1.578-1.82 1.578-.187 0-.34-.015-.526-.03V3.952zM15.805.398v7.434c.478.08 1.018.126 1.528.126.895 0 1.76-.22 2.392-.73.494-.4.818-1.02.818-1.823 0-1.67-1.327-2.41-2.855-2.41-.2 0-.417.03-.71.046V.4h-1.173zm-5.572 0v1.005h1.697v6.475h1.19V1.403h1.697V.398h-4.584zM6.158 3.365c.046-1.02.447-2.163 1.22-2.163.57 0 1.14.664 1.11 2.163h-2.33zm3.457.88c.015-.184.015-.385.015-.663 0-1.7-.6-3.307-2.13-3.307-1.496 0-2.516 1.514-2.516 3.94 0 2.288.927 3.758 2.717 3.758.588 0 1.22-.126 1.638-.358l-.186-.88c-.293.17-.725.293-1.235.293-.864 0-1.76-.495-1.775-2.782h3.473zm-5.48 2.536c-.277.124-.54.2-.864.2-1.094 0-1.758-1.05-1.758-2.796 0-1.468.54-2.89 1.73-2.89.384 0 .693.124.847.202l.23-.974C4.106.398 3.673.29 3.27.29 1.404.29.324 2.036.324 4.184c0 2.473 1.096 3.79 2.732 3.79.525 0 .973-.127 1.235-.282l-.154-.91z" fill="#808184" mask="url(#d)"/></g></g></svg>