<svg><defs>
    <svg id="account" viewBox="0 0 24 24">
        <path d="M12,4A4,4 0 0,1 16,8A4,4 0 0,1 12,12A4,4 0 0,1 8,8A4,4 0 0,1 12,4M12,14C16.42,14 20,15.79 20,18V20H4V18C4,15.79 7.58,14 12,14Z" />
    </svg>
    <svg id="menu" viewBox="0 0 24 24">
        <path d="M3,6H21V8H3V6M3,11H21V13H3V11M3,16H21V18H3V16Z" />
    </svg>

    <svg id="sort" viewBox="0 0 24 24">
        <path d="M10,13V11H18V13H10M10,19V17H14V19H10M10,7V5H22V7H10M6,17H8.5L5,20.5L1.5,17H4V7H1.5L5,3.5L8.5,7H6V17Z" />
    </svg>
    <svg id="sort-ascending" viewBox="0 0 24 24">
        <path d="M10,11V13H18V11H10M10,5V7H14V5H10M10,17V19H22V17H10M6,7H8.5L5,3.5L1.5,7H4V20H6V7Z" />
    </svg>
    <svg id="sort-descending" viewBox="0 0 24 24">
        <path d="M10,13V11H18V13H10M10,19V17H14V19H10M10,7V5H22V7H10M6,17H8.5L5,20.5L1.5,17H4V4H6V17Z" />
    </svg>


    <svg id="speedometer" viewBox="0 0 100 125">
        <path d="M 50 6 C 25.72316 6 6 25.72316 6 50 C 6 74.2768 25.72316 94 50 94 C 74.27684 94 94 74.2768 94 50 C 94 25.72316 74.27684 6 50 6 z M 47.9375 10.0625 C 47.95816 10.061456 47.979332 10.063513 48 10.0625 L 48 16 A 2.0002 2.0002 0 1 0 52 16 L 52 10.0625 C 61.546856 10.530412 70.212827 14.313214 76.84375 20.3125 L 72.625 24.53125 A 2.0108349 2.0108349 0 0 0 75.46875 27.375 L 79.65625 23.15625 C 85.663342 29.789105 89.469237 38.445975 89.9375 48 L 84 48 A 2.0002 2.0002 0 0 0 83.8125 48 A 2.0021961 2.0021961 0 1 0 84 52 L 89.9375 52 C 89.335759 64.277401 83.2116 75.083181 74 82 L 74 80 A 2.0002 2.0002 0 0 0 71.78125 77.96875 A 2.0002 2.0002 0 0 0 70 80 L 70 84.625 C 64.116575 88.026707 57.296716 90 50 90 C 42.703282 90 35.883425 88.026707 30 84.625 L 30 75 L 65 75 A 2.0002 2.0002 0 1 0 65 71 L 28 71 A 2.0002 2.0002 0 0 0 27.8125 71 A 2.0002 2.0002 0 0 0 26 73 L 26 82 C 16.7884 75.083181 10.664241 64.277401 10.0625 52 L 16 52 A 2.0002 2.0002 0 1 0 16 48 L 10.0625 48 C 10.530763 38.445975 14.336659 29.789105 20.34375 23.15625 L 24.53125 27.375 A 2.0108349 2.0108349 0 0 0 27.375 24.53125 L 23.15625 20.3125 C 29.772817 14.326202 38.415156 10.5438 47.9375 10.0625 z M 76.84375 32 A 2.0002 2.0002 0 0 0 76.3125 32.125 L 51.71875 41.25 C 51.15427 41.13826 50.595032 41 50 41 C 45.053127 41 41 45.05311 41 50 C 41 54.9469 45.053127 59 50 59 C 53.81219 59 57.009685 56.5647 58.3125 53.1875 L 78.3125 35.5 A 2.0002 2.0002 0 0 0 76.84375 32 z M 67.625 39.59375 L 55.40625 50.40625 A 2.0002 2.0002 0 0 0 54.8125 51.375 C 54.219244 53.4646 52.306589 55 50 55 C 47.214889 55 45 52.7851 45 50 C 45 47.21487 47.214889 45 50 45 C 50.498407 45 50.961154 45.0856 51.40625 45.21875 A 2.0002 2.0002 0 0 0 52.6875 45.15625 L 67.625 39.59375 z M 72 71 C 70.895431 71 70 71.895431 70 73 C 70 74.104569 70.895431 75 72 75 C 73.104569 75 74 74.104569 74 73 C 74 71.895431 73.104569 71 72 71 z "/>
    </svg>
    <svg id="patient" viewBox="0 0 100 125">
        <path d="M52.666,4.273c9.893,0,19.664,2.875,24.932,8.88c4.088,4.661,7.407,11.577,7.973,19.458c0.348,4.849-0.239,6.159-1.65,9.395  c-1.648,4.223,10.248,15.449,7.212,18.294c-1.835,1.791-3.669,1.709-5.772,3.028c-1.594,0.771,0.265,3.046-0.746,6.81  c-0.744,2.768-2.213,3.953-2.661,6.34c-0.326,1.729,1.608,2.195,0.875,5.685c-0.627,2.979-2.642,3.877-5.903,4.372  c-1.016,0.154-1.964,0.214-2.875,0.214c-2.966,0-5.552-0.634-8.865-0.729c-0.002,0-0.004,0-0.006,0  c-2.918,0-2.174,6.39-0.072,10.266H22.4c1.802-2.234,3.512-4.715,5.4-7.564c2.694-4.066,3.625-9.314,2.775-15.74  c-0.408-3.078-2.689-6.18-4.372-8.744c-5.256-8.016-10.979-16.279-10.712-29.077c0.211-10.125,6.382-18.088,12.243-23.172  C33.575,6.919,43.176,4.273,52.666,4.273 M52.666,1.273c-10.746,0-20.801,3.158-26.898,8.448  c-4.848,4.206-13.02,13.095-13.276,25.375c-0.278,13.309,5.546,22.174,10.685,29.997l0.518,0.787  c0.197,0.301,0.402,0.608,0.611,0.922c1.418,2.127,3.026,4.537,3.295,6.572c0.747,5.649-0.027,10.256-2.302,13.688  c-1.634,2.468-3.399,5.063-5.234,7.338c-0.726,0.899-0.87,2.136-0.372,3.178s1.551,1.706,2.707,1.706h42.706  c1.058,0,2.037-0.557,2.578-1.466c0.541-0.908,0.563-2.034,0.059-2.964c-1.094-2.02-1.535-4.479-1.497-5.78  c1.027,0.071,2.01,0.188,2.968,0.303c1.53,0.183,3.113,0.371,4.836,0.371c1.137,0,2.225-0.081,3.324-0.248  c2.157-0.327,7.206-1.094,8.39-6.72c0.597-2.84-0.061-4.509-0.724-5.85c-0.024-0.05-0.053-0.107-0.08-0.163  c0.165-0.64,0.475-1.203,0.884-1.948c0.54-0.983,1.212-2.207,1.668-3.902c0.627-2.336,0.414-4.216,0.259-5.479  c0.35-0.158,0.715-0.294,1.109-0.441c1.248-0.467,2.8-1.047,4.328-2.531c3.35-3.176,0.206-8.03-2.835-12.725  c-1.253-1.935-3.562-5.499-3.61-6.749c1.523-3.5,2.178-5.341,1.801-10.596c-0.561-7.815-3.735-15.55-8.709-21.222  C74.414,4.975,64.251,1.273,52.666,1.273L52.666,1.273z"/><path d="M59.177,20.694c0.118,0,0.24,0.002,0.368,0.007c1.458,0.054,2.615-0.032,4.832,2.735c0.517,0.452,0.683,0.598,0.682,0.598  S64.5,23.548,64.5,23.548c0.928,1.846,2.664,3.678,0.607,6.907c-2.006,3.737-4.102,5.105-4.102,9.298  c0,2.645,1.064,4.342,1.367,6.838c0.408,6.631-1.584,10.868-2.936,10.868c-0.666,0-1.177-1.028-1.168-3.305  c-0.638-4.83-0.968-7.216-2.306-9.52c-1.028-1.153-0.942-1.959-3.446-1.959c-0.145,0-0.298,0.003-0.46,0.008  c-0.163-0.005-0.316-0.008-0.461-0.008c-2.504,0-2.417,0.805-3.446,1.959c-1.338,2.305-1.668,4.69-2.306,9.52  c0.009,2.275-0.501,3.305-1.167,3.305c-1.352,0-3.345-4.235-2.936-10.868c0.301-2.496,1.367-4.193,1.367-6.836  c0-4.193-2.097-5.562-4.102-9.299c-2.055-3.229-0.318-5.062,0.605-6.908c0,0-0.557,0.486-0.559,0.486c0,0,0.166-0.146,0.681-0.597  c2.217-2.767,3.375-2.682,4.832-2.735c0.128-0.004,0.25-0.007,0.369-0.007c2.894,0,2.888,1.339,6.804,1.669v0.027  c0.042,0.003,0.08,0.007,0.123,0.009c0.065-0.003,0.129-0.009,0.195-0.013c0.064,0.004,0.127,0.01,0.193,0.013  c0.042-0.002,0.081-0.006,0.122-0.009v-0.028C56.289,22.033,56.284,20.694,59.177,20.694 M59.177,17.694  c-2.048,0-3.227,0.522-4.174,0.942c-0.74,0.328-1.38,0.611-2.881,0.737c-0.023,0.002-0.047,0.004-0.07,0.007  c-0.021-0.002-0.041-0.004-0.061-0.006c-1.501-0.126-2.14-0.409-2.88-0.737c-0.948-0.419-2.127-0.942-4.175-0.942  c-0.152,0-0.311,0.003-0.477,0.009L44.28,17.71c-2.09,0.068-4.043,0.394-6.715,3.64c-0.686,0.608-1.464,1.382-1.529,2.492  c-0.917,1.808-1.822,4.592,0.378,8.126c0.646,1.191,1.283,2.145,1.848,2.988c1.229,1.837,1.847,2.759,1.847,4.799  c0,1.088-0.259,1.978-0.587,3.104c-0.282,0.968-0.601,2.064-0.758,3.373c-0.007,0.058-0.012,0.116-0.016,0.174  c-0.336,5.445,0.804,10.406,2.903,12.638c1.099,1.168,2.252,1.414,3.026,1.414c0.978,0,1.906-0.393,2.615-1.104  c1.038-1.042,1.533-2.635,1.552-5c0.577-4.357,0.874-6.322,1.779-7.997c0.202-0.245,0.362-0.464,0.489-0.637  c0.008-0.01,0.015-0.021,0.022-0.031c0.107-0.009,0.258-0.016,0.461-0.016c0.113,0,0.233,0.002,0.361,0.007  c0.033,0.001,0.066,0.001,0.101,0.001c0.033,0,0.067,0,0.101-0.001c0.127-0.004,0.246-0.007,0.359-0.007  c0.203,0,0.354,0.007,0.462,0.017c0.008,0.01,0.016,0.021,0.023,0.032c0.127,0.172,0.288,0.392,0.489,0.636  c0.904,1.674,1.201,3.638,1.777,7.996c0.02,2.366,0.516,3.958,1.553,5c0.709,0.711,1.638,1.104,2.615,1.104  c0.774,0,1.928-0.245,3.025-1.414c2.1-2.232,3.239-7.193,2.904-12.638c-0.004-0.06-0.009-0.118-0.016-0.177  c-0.158-1.306-0.478-2.4-0.758-3.366c-0.328-1.129-0.588-2.021-0.588-3.111c0-2.041,0.617-2.962,1.847-4.799  c0.564-0.843,1.202-1.795,1.848-2.985c2.204-3.538,1.297-6.323,0.377-8.131c-0.067-1.108-0.845-1.88-1.53-2.488  c-2.669-3.244-4.621-3.57-6.711-3.64l-0.18-0.006C59.487,17.697,59.329,17.694,59.177,17.694L59.177,17.694z"/>
    </svg>
    <svg id="therapy" viewBox="0 0 100 125">
        <path d="M69.082,4.998c-4.489,0-7.562,1.449-10.533,2.851c-2.646,1.248-5.144,2.426-8.548,2.427   c-3.405-0.001-5.903-1.18-8.549-2.427c-2.972-1.401-6.044-2.851-10.533-2.851c-12.953,0-23.49,10.538-23.49,23.49   c0,5.759,1.997,10.334,3.928,14.758c1.831,4.193,3.559,8.154,3.773,13.151c0.045,1.052,0.085,2.154,0.126,3.293   c0.519,14.299,1.23,33.883,14.429,35.283c0.157,0.017,0.312,0.025,0.465,0.025c4.554-0.001,6.454-6.671,8.653-14.395   c2.415-8.477,5.151-18.085,11.125-18.274c0,0,0.005,0,0.014,0c0.035,0,0.129,0,0.131,0c5.973,0.189,8.709,9.797,11.124,18.274   c2.2,7.725,4.099,14.395,8.653,14.395c0.188,0.015,0.309-0.008,0.466-0.025c13.199-1.4,13.91-20.984,14.429-35.283   c0.042-1.139,0.082-2.241,0.126-3.293c0.214-4.996,1.943-8.957,3.773-13.15c1.931-4.424,3.928-8.999,3.928-14.758   C92.572,15.535,82.034,4.998,69.082,4.998z M85.895,42.046c-1.86,4.261-3.783,8.667-4.021,14.222   c-0.045,1.059-0.086,2.167-0.127,3.313c-0.479,13.202-1.135,31.283-11.748,32.409c-0.05,0.005-0.1,0.008-0.148,0.008c0,0,0,0,0,0   c-2.289-0.001-4.138-6.491-5.769-12.217c-2.695-9.465-5.75-20.192-13.906-20.451l-0.193-0.004l-0.149,0.004   c-8.164,0.258-11.219,10.986-13.915,20.451c-1.666,5.848-3.522,12.467-5.917,12.208c-10.612-1.125-11.269-19.207-11.748-32.409   c-0.042-1.146-0.082-2.254-0.127-3.313c-0.238-5.556-2.161-9.961-4.021-14.223c-1.891-4.332-3.677-8.424-3.677-13.558   c0-11.298,9.192-20.49,20.49-20.49c3.817,0,6.458,1.246,9.253,2.564C43,11.895,45.923,13.274,50,13.275   c4.076-0.001,7-1.38,9.828-2.714c2.796-1.318,5.437-2.564,9.253-2.564c11.298,0,20.49,9.192,20.49,20.49   C89.572,33.621,87.786,37.713,85.895,42.046z"/>
    </svg>
    <svg id="orthopedics" viewBox="0 0 100 125">
        <path d="M63.918,28.617c-0.621,0-1.225,0.039-1.848,0.121c-0.028,0.004-0.053,0.014-0.081,0.019c-0.03,0.006-0.06,0.006-0.09,0.013   c-0.021,0.005-0.04,0.016-0.06,0.022c-0.048,0.014-0.094,0.032-0.139,0.051c-0.045,0.019-0.089,0.038-0.131,0.06   c-0.042,0.023-0.082,0.048-0.121,0.074c-0.04,0.027-0.08,0.054-0.117,0.085c-0.036,0.03-0.069,0.061-0.102,0.094   c-0.034,0.034-0.067,0.067-0.097,0.104c-0.03,0.037-0.057,0.075-0.084,0.114c-0.026,0.038-0.051,0.076-0.073,0.116   c-0.023,0.043-0.043,0.087-0.062,0.131c-0.018,0.042-0.035,0.084-0.049,0.128c-0.015,0.046-0.026,0.092-0.036,0.14   c-0.01,0.047-0.019,0.093-0.024,0.141c-0.005,0.047-0.007,0.094-0.008,0.142c-0.001,0.051,0,0.101,0.004,0.152   c0.002,0.021-0.001,0.041,0.002,0.063c0.004,0.03,0.015,0.057,0.02,0.086c0.005,0.028,0.005,0.056,0.012,0.083   c0.237,0.941,0.357,1.882,0.357,2.798c0,6.165-5.02,11.181-11.191,11.181s-11.191-5.015-11.191-11.181   c0-0.916,0.121-1.857,0.357-2.798c0.007-0.028,0.007-0.056,0.012-0.083c0.006-0.029,0.016-0.056,0.02-0.086   c0.003-0.021,0-0.042,0.002-0.063c0.005-0.051,0.005-0.101,0.004-0.152c-0.001-0.048-0.002-0.095-0.008-0.142   c-0.005-0.048-0.014-0.094-0.024-0.141c-0.01-0.048-0.021-0.095-0.036-0.141c-0.014-0.044-0.031-0.085-0.049-0.127   c-0.019-0.045-0.039-0.089-0.062-0.132c-0.022-0.04-0.047-0.078-0.073-0.116c-0.027-0.039-0.054-0.078-0.084-0.114   c-0.03-0.037-0.063-0.07-0.097-0.104c-0.033-0.033-0.066-0.065-0.102-0.094c-0.037-0.031-0.077-0.058-0.117-0.085   c-0.04-0.026-0.079-0.052-0.122-0.074c-0.042-0.023-0.086-0.042-0.131-0.06c-0.046-0.019-0.091-0.036-0.139-0.051   c-0.021-0.006-0.039-0.017-0.06-0.022c-0.03-0.007-0.059-0.007-0.089-0.013c-0.028-0.005-0.053-0.015-0.082-0.019   c-0.623-0.081-1.227-0.121-1.848-0.121c-9.653,0-17.506,7.853-17.506,17.507c0,4.277,1.473,7.647,2.898,10.906   c1.323,3.025,2.572,5.882,2.723,9.46c0.034,0.776,0.063,1.588,0.094,2.429c0.385,10.551,0.912,25.001,10.852,26.059   C35.287,94.992,35.429,95,35.568,95c3.561,0,4.989-5.012,6.633-10.78c1.726-6.056,3.682-12.92,7.841-13.048   c4.075,0.129,6.031,6.992,7.757,13.048c1.708,5.992,3.18,11.169,7.058,10.757c9.94-1.057,10.467-15.507,10.852-26.059   c0.031-0.84,0.06-1.653,0.094-2.43c0.151-3.576,1.4-6.433,2.723-9.458c1.425-3.259,2.898-6.629,2.898-10.906   C81.424,36.47,73.571,28.617,63.918,28.617z M75.829,55.851c-1.372,3.14-2.792,6.386-2.967,10.511   c-0.034,0.782-0.063,1.602-0.094,2.449c-0.346,9.475-0.819,22.453-8.222,23.24c-0.02,0.002-0.04,0.003-0.059,0.003   c-1.396,0-2.875-5.19-3.859-8.641c-2.002-7.024-4.271-14.986-10.494-15.182c-0.031-0.001-0.238-0.001-0.268,0   c-6.224,0.196-8.493,8.158-10.494,15.182c-0.984,3.451-2.462,8.641-3.859,8.641c-0.019,0-0.039-0.001-0.059-0.003   c-7.403-0.787-7.876-13.765-8.222-23.24c-0.031-0.847-0.06-1.667-0.094-2.448c-0.175-4.126-1.595-7.373-2.967-10.512   c-1.364-3.119-2.652-6.066-2.652-9.728c0-7.998,6.481-14.507,14.467-14.56c-0.078,0.6-0.118,1.198-0.118,1.79   c0,7.787,6.341,14.123,14.133,14.123s14.133-6.336,14.133-14.123c0-0.592-0.04-1.19-0.118-1.79   c7.986,0.053,14.467,6.561,14.467,14.56C78.482,49.785,77.193,52.732,75.829,55.851z"/><path d="M50,25.38c7.791,0,14.129-6.338,14.129-14.129c0-1.836-0.353-3.631-1.051-5.337c-0.152-0.371-0.448-0.664-0.821-0.811   c-0.374-0.147-0.791-0.136-1.154,0.031c-0.459,0.21-0.913,0.424-1.365,0.638C56.731,7.19,53.891,8.53,50,8.531   c-3.891-0.001-6.731-1.341-9.739-2.759c-0.452-0.214-0.906-0.428-1.365-0.638c-0.365-0.167-0.78-0.178-1.154-0.031   c-0.373,0.147-0.669,0.441-0.821,0.811c-0.697,1.706-1.051,3.501-1.051,5.337C35.871,19.042,42.209,25.38,50,25.38z M39.157,8.504   c3.121,1.472,6.365,2.968,10.843,2.97c4.478-0.001,7.722-1.498,10.843-2.97c0.229,0.896,0.344,1.815,0.344,2.747   c0,6.169-5.019,11.187-11.187,11.187S38.813,17.42,38.813,11.251C38.813,10.319,38.928,9.4,39.157,8.504z"/><path d="M50.385,26.425c-0.812,0-1.471,0.658-1.471,1.471v9.848l-2.343-2.343c-0.575-0.575-1.506-0.575-2.08,0   c-0.575,0.574-0.575,1.506,0,2.08l4.854,4.855c0.276,0.276,0.65,0.431,1.04,0.431s0.764-0.155,1.04-0.431l4.855-4.855   c0.575-0.574,0.575-1.506,0-2.08c-0.575-0.575-1.506-0.575-2.08,0l-2.344,2.343v-9.848C51.856,27.083,51.197,26.425,50.385,26.425z   "/>
    </svg>
    <svg id="surgery" viewBox="0 0 100 125">
        <path d="M62.593,5.715c-4.604,0-9.026,1.578-12.593,4.47c-3.567-2.892-7.989-4.47-12.594-4.47c-11.062,0-20.062,9-20.062,20.061  c0,8.658,2.488,12.886,4.684,16.617c1.37,2.327,2.553,4.336,3.01,7.206c0.561,3.514,3.063,6.132,7.445,7.854  c0.504,1.162,1.723,4.051,2.947,7.558c-0.691,0.081-1.274,0.649-1.328,1.38c-0.06,0.826,0.562,1.545,1.388,1.604  c0.323,0.023,0.646,0.032,0.968,0.053c0.676,2.008,1.317,3.885,1.934,5.649c-0.721,0.057-1.33,0.629-1.385,1.381  c-0.06,0.826,0.562,1.545,1.388,1.604c0.358,0.026,0.717,0.038,1.075,0.059c0.747,2.075,1.453,3.96,2.127,5.652  c-0.586,0.168-1.045,0.683-1.092,1.328c-0.06,0.827,0.562,1.545,1.388,1.604c0.315,0.023,0.63,0.035,0.944,0.052  c2.646,6.063,4.822,8.906,7.163,8.906c2.495,0,4.802-3.229,7.692-10.146c0.413-0.093,0.83-0.167,1.242-0.27  c0.804-0.2,1.293-1.014,1.093-1.818c-0.136-0.547-0.561-0.941-1.068-1.079c0.7-1.817,1.437-3.829,2.218-6.042  c0.435-0.101,0.87-0.195,1.304-0.304c0.804-0.2,1.293-1.014,1.094-1.817c-0.154-0.619-0.672-1.048-1.269-1.123  c0.587-1.709,1.197-3.516,1.838-5.432c0.063-0.186,0.125-0.367,0.188-0.551c0.384-0.091,0.769-0.174,1.151-0.269  c0.804-0.2,1.293-1.014,1.094-1.817c-0.14-0.562-0.581-0.963-1.106-1.09c0.886-2.354,1.668-4.2,2.047-5.074  c4.384-1.722,6.886-4.34,7.446-7.854c0.457-2.87,1.64-4.88,3.01-7.207c2.195-3.73,4.684-7.959,4.684-16.616  C82.656,14.715,73.656,5.715,62.593,5.715z M50.015,91.285c-0.987-0.164-2.374-2.519-3.867-5.823  c2.687-0.015,5.358-0.244,8.005-0.654C52.553,88.455,51.055,91.11,50.015,91.285z M55.511,81.544  c-3.504,0.673-7.068,0.978-10.651,0.907c-0.723-1.771-1.45-3.675-2.152-5.588c0.434,0.007,0.868,0.023,1.302,0.023  c4.615,0,9.205-0.417,13.729-1.242C57.019,77.638,56.265,79.651,55.511,81.544z M58.899,72.365  c-5.669,1.173-11.459,1.668-17.278,1.48c-0.71-2.007-1.371-3.939-1.948-5.647c0.938,0.027,1.876,0.052,2.813,0.052  c6.202,0,12.367-0.611,18.432-1.809C60.35,68.137,59.661,70.18,58.899,72.365z M62.048,63.141  c-7.666,1.665-15.51,2.342-23.395,2.018c-0.865-2.572-1.751-4.873-2.438-6.564c3.701,0.871,8.287,1.318,13.784,1.318  s10.084-0.447,13.785-1.318C63.283,59.829,62.677,61.387,62.048,63.141z M75.387,40.871c-1.396,2.373-2.84,4.826-3.387,8.256  c-0.566,3.552-4.843,7.785-22,7.785s-21.433-4.233-21.999-7.785c-0.547-3.43-1.99-5.883-3.387-8.255  c-2.099-3.567-4.27-7.255-4.27-15.096c0-9.407,7.653-17.061,17.062-17.061c4.295,0,8.406,1.618,11.574,4.554  c0.574,0.533,1.465,0.533,2.039,0c3.168-2.937,7.278-4.554,11.573-4.554c9.409,0,17.063,7.654,17.063,17.061  C79.656,33.616,77.485,37.305,75.387,40.871z"/>
    </svg>
    <svg id="orthodontics" viewBox="0 0 100 125">
        <path d="M93.5,34.473h-6.109c0.194-1.171,0.305-2.394,0.305-3.684c0-11.656-9.483-21.14-21.14-21.14   c-4.045,0-6.93,1.361-9.476,2.562c-2.346,1.106-4.562,2.151-7.565,2.152c-3.005-0.001-5.221-1.046-7.567-2.152   c-2.545-1.201-5.431-2.562-9.476-2.562c-11.656,0-21.14,9.483-21.14,21.14c0,1.29,0.112,2.513,0.305,3.684H6.5   c-0.829,0-1.5,0.672-1.5,1.5s0.671,1.5,1.5,1.5h5.836c0.675,2.317,1.601,4.461,2.518,6.562c1.629,3.731,3.167,7.255,3.357,11.688   c0.04,0.939,0.076,1.923,0.113,2.939c0.465,12.83,1.103,30.4,13.03,31.666c0.146,0.016,0.29,0.023,0.431,0.023c0,0,0,0,0.001,0   c4.188-0.001,5.9-6.013,7.883-12.973c2.141-7.519,4.568-16.04,9.786-16.205l-0.047-1.499l0.167,1.499   c5.218,0.165,7.645,8.687,9.785,16.205c1.982,6.961,3.694,12.973,7.883,12.973c0,0,0.001,0,0.001,0   c0.141,0,0.286-0.008,0.431-0.023c11.927-1.266,12.564-18.835,13.03-31.664c0.037-1.018,0.073-2.002,0.113-2.941   c0.19-4.433,1.728-7.956,3.357-11.688c0.917-2.101,1.842-4.245,2.518-6.562H93.5c0.829,0,1.5-0.672,1.5-1.5   S94.329,34.473,93.5,34.473z M14.333,30.789c0-10.002,8.137-18.14,18.14-18.14c3.373,0,5.716,1.104,8.196,2.274   c2.542,1.199,5.169,2.438,8.847,2.439c3.676-0.001,6.304-1.24,8.845-2.439c2.48-1.17,4.823-2.274,8.196-2.274   c10.002,0,18.14,8.138,18.14,18.14c0,1.295-0.139,2.51-0.362,3.684H57.032v-4.518c0-0.828-0.671-1.5-1.5-1.5H43.497   c-0.829,0-1.5,0.672-1.5,1.5v4.518H14.694C14.472,33.299,14.333,32.084,14.333,30.789z M44.997,37.473h9.035v3.018h-9.035V37.473z    M44.997,34.473v-3.018h9.035v3.018H44.997z M81.425,42.834c-1.667,3.819-3.391,7.768-3.604,12.759   c-0.041,0.946-0.077,1.938-0.114,2.961c-0.426,11.732-1.009,27.8-10.349,28.791c-0.039,0.004-0.08,0.031-0.116,0.006   c-1.923,0-3.628-5.985-4.998-10.795c-2.422-8.506-5.168-18.146-12.576-18.381c-0.002,0-0.111-0.003-0.113-0.003   c-0.003-0.001-0.008-0.001-0.014-0.001c-0.045,0-0.155,0.003-0.181,0.004c-7.408,0.234-10.154,9.875-12.577,18.381   c-1.37,4.81-3.075,10.795-4.998,10.795c-0.038,0-0.076-0.002-0.115-0.006c-9.34-0.991-9.923-17.06-10.348-28.793   c-0.037-1.022-0.073-2.013-0.114-2.959c-0.214-4.991-1.938-8.939-3.604-12.759c-0.783-1.795-1.539-3.546-2.131-5.361h26.524v4.518   c0,0.828,0.671,1.5,1.5,1.5h12.035c0.829,0,1.5-0.672,1.5-1.5v-4.518h26.524C82.964,39.288,82.208,41.039,81.425,42.834z"/>
    </svg>
    <svg id="hygienists" viewBox="0 0 100 125">
        <path d="M91.529,18.45l-3.658-3.41c-0.768-0.716-1.758-1.073-2.727-1.071c-0.746-0.001-1.498,0.223-2.154,0.643   c-0.033-0.033-8.135-7.606-8.135-7.606c-0.77-0.717-1.76-1.074-2.729-1.072c-1.039-0.002-2.09,0.415-2.873,1.225L69.25,7.153   l-0.049,0.05c-0.531,0.575-0.887,1.218-1.145,1.89c-0.248,0.668-0.395,1.363-0.4,2.099c-0.002,0-0.006-0.001-0.008-0.001   c-0.545,0.001-1.07,0.063-1.588,0.204c-0.262,0.073-0.521,0.166-0.791,0.303c-0.268,0.14-0.553,0.32-0.84,0.623   c-0.479,0.533-0.635,1.015-0.762,1.47c-0.115,0.458-0.16,0.907-0.16,1.369c0,0.139,0.014,0.28,0.023,0.422   c-0.537,0.002-1.053,0.063-1.564,0.202c-0.26,0.073-0.521,0.166-0.791,0.304c-0.268,0.139-0.555,0.319-0.842,0.624l0.002-0.002   c-0.479,0.533-0.635,1.015-0.76,1.47c-0.115,0.457-0.16,0.906-0.16,1.367c0,0.155,0.014,0.313,0.025,0.47   c-0.68,0.049-1.316,0.218-1.924,0.475c-0.709,0.308-1.377,0.726-1.955,1.338c-0.719,0.767-1.074,1.761-1.072,2.727   c-0.002,1.063,0.428,2.142,1.27,2.928l7.674,7.156c-0.059,0.033-14.676,7.415-14.676,7.415c-0.652,0.33-1.314,0.766-1.961,1.247   c-0.645,0.483-1.25,0.995-1.75,1.524L8.283,83.93l0.002-0.001c-0.725,0.767-1.086,1.764-1.084,2.734   c-0.002,1.061,0.428,2.138,1.27,2.921l3.654,3.41c0.77,0.719,1.764,1.074,2.732,1.073c1.057,0.001,2.133-0.422,2.92-1.259   l36.764-39.105c0.252-0.271,0.734-0.691,1.232-1.062c0.498-0.374,1.037-0.717,1.369-0.882l14.504-7.32   c0.652-0.331,1.314-0.768,1.961-1.251c0.645-0.485,1.25-0.999,1.75-1.533l16.369-17.552c0.717-0.769,1.074-1.759,1.072-2.728   C92.801,20.316,92.373,19.236,91.529,18.45z M59.795,23.994c0,0,0.451,0.052,0.658,0.052c0.764,0.008,1.605-0.269,2.217-0.873   c0.619-0.597,0.918-1.451,0.908-2.225c0-0.29-0.158-1.192-0.16-1.364c0.045-0.003,0.92,0.075,1.127,0.075   c0.764,0.007,1.607-0.27,2.219-0.874c0.617-0.597,0.916-1.451,0.906-2.224c0-0.29-0.102-0.852-0.102-0.852   c-0.035-0.152-0.057-0.342-0.059-0.515c0.045-0.003,0.922,0.075,1.129,0.075c0.764,0.007,1.605-0.27,2.217-0.874   c0.617-0.597,0.916-1.451,0.906-2.224c0-0.287-0.086-0.719-0.107-0.959c-0.016-0.158,0.045-0.45,0.146-0.71   c0.096-0.26,0.242-0.488,0.324-0.571h0.002l0.002-0.001l8.041,7.499v0.002l0.002,0.001l-1.875,2.01l-3.656-3.409   c-0.504-0.471-1.295-0.443-1.766,0.062c-0.473,0.505-0.443,1.296,0.061,1.767l3.656,3.409l-1.705,1.828L70.5,19.008   c-0.506-0.471-1.297-0.443-1.768,0.062s-0.443,1.296,0.063,1.767l4.387,4.091l-6.646,7.128l-0.004,0.001l0,0l-8.041-7.498v-0.004   v-0.001c0.086-0.096,0.328-0.273,0.604-0.388C59.367,24.043,59.674,23.989,59.795,23.994z M72.434,38.927   c-0.25,0.271-0.729,0.691-1.227,1.063c-0.494,0.373-1.033,0.716-1.361,0.879L55.34,48.19c-0.652,0.331-1.314,0.767-1.961,1.248   c-0.645,0.483-1.25,0.994-1.752,1.525l-36.76,39.103l-0.01,0.002l-0.006-0.001l-3.648-3.402l36.756-39.099   c0.252-0.271,0.734-0.69,1.232-1.062c0.498-0.373,1.037-0.716,1.367-0.88l14.506-7.321c0.652-0.332,1.314-0.769,1.961-1.252   c0.645-0.485,1.248-0.999,1.75-1.533l0.68-0.729c0.002-0.001,0.002-0.001,0.002-0.002l0,0v-0.001l0.002,0.001l9.74-10.445   l5.943-6.373h0.002v-0.002l3.654,3.406v0.004l0.002,0.001L72.434,38.927z"/>
    </svg>
</defs></svg>