<svg><defs>
    <svg id="map-marker" viewBox="0 0 24 24">
        <path d="M12,11.5A2.5,2.5 0 0,1 9.5,9A2.5,2.5 0 0,1 12,6.5A2.5,2.5 0 0,1 14.5,9A2.5,2.5 0 0,1 12,11.5M12,2A7,7 0 0,0 5,9C5,14.25 12,22 12,22C12,22 19,14.25 19,9A7,7 0 0,0 12,2Z" />
    </svg>
    <svg id="email" viewBox="0 0 24 24">
        <path d="M20,8L12,13L4,8V6L12,11L20,6M20,4H4C2.89,4 2,4.89 2,6V18A2,2 0 0,0 4,20H20A2,2 0 0,0 22,18V6C22,4.89 21.1,4 20,4Z" />
    </svg>
    <svg id="facebook" viewBox="0 0 24 24">
        <path d="M17,2V2H17V6H15C14.31,6 14,6.81 14,7.5V10H14L17,10V14H14V22H10V14H7V10H10V6A4,4 0 0,1 14,2H17Z" />
    </svg>
    <svg id="instagram" viewBox="0 0 24 24">
        <path d="M7.8,2H16.2C19.4,2 22,4.6 22,7.8V16.2A5.8,5.8 0 0,1 16.2,22H7.8C4.6,22 2,19.4 2,16.2V7.8A5.8,5.8 0 0,1 7.8,2M7.6,4A3.6,3.6 0 0,0 4,7.6V16.4C4,18.39 5.61,20 7.6,20H16.4A3.6,3.6 0 0,0 20,16.4V7.6C20,5.61 18.39,4 16.4,4H7.6M17.25,5.5A1.25,1.25 0 0,1 18.5,6.75A1.25,1.25 0 0,1 17.25,8A1.25,1.25 0 0,1 16,6.75A1.25,1.25 0 0,1 17.25,5.5M12,7A5,5 0 0,1 17,12A5,5 0 0,1 12,17A5,5 0 0,1 7,12A5,5 0 0,1 12,7M12,9A3,3 0 0,0 9,12A3,3 0 0,0 12,15A3,3 0 0,0 15,12A3,3 0 0,0 12,9Z" />
    </svg>
    <svg id="odnoklassniki" viewBox="0 0 24 24">
        <path d="M17.83,12.74C17.55,12.17 16.76,11.69 15.71,12.5C14.28,13.64 12,13.64 12,13.64C12,13.64 9.72,13.64 8.29,12.5C7.24,11.69 6.45,12.17 6.17,12.74C5.67,13.74 6.23,14.23 7.5,15.04C8.59,15.74 10.08,16 11.04,16.1L10.24,16.9C9.1,18.03 8,19.12 7.25,19.88C6.8,20.34 6.8,21.07 7.25,21.5L7.39,21.66C7.84,22.11 8.58,22.11 9.03,21.66L12,18.68C13.15,19.81 14.24,20.9 15,21.66C15.45,22.11 16.18,22.11 16.64,21.66L16.77,21.5C17.23,21.07 17.23,20.34 16.77,19.88L13.79,16.9L13,16.09C13.95,16 15.42,15.73 16.5,15.04C17.77,14.23 18.33,13.74 17.83,12.74M12,4.57C13.38,4.57 14.5,5.69 14.5,7.06C14.5,8.44 13.38,9.55 12,9.55C10.62,9.55 9.5,8.44 9.5,7.06C9.5,5.69 10.62,4.57 12,4.57M12,12.12C14.8,12.12 17.06,9.86 17.06,7.06C17.06,4.27 14.8,2 12,2C9.2,2 6.94,4.27 6.94,7.06C6.94,9.86 9.2,12.12 12,12.12Z" />
    </svg>
    <svg id="vk" viewBox="0 0 24 24">
        <path d="M19.54,14.6C21.09,16.04 21.41,16.73 21.46,16.82C22.1,17.88 20.76,17.96 20.76,17.96L18.18,18C18.18,18 17.62,18.11 16.9,17.61C15.93,16.95 15,15.22 14.31,15.45C13.6,15.68 13.62,17.23 13.62,17.23C13.62,17.23 13.62,17.45 13.46,17.62C13.28,17.81 12.93,17.74 12.93,17.74H11.78C11.78,17.74 9.23,18 7,15.67C4.55,13.13 2.39,8.13 2.39,8.13C2.39,8.13 2.27,7.83 2.4,7.66C2.55,7.5 2.97,7.5 2.97,7.5H5.73C5.73,7.5 6,7.5 6.17,7.66C6.32,7.77 6.41,8 6.41,8C6.41,8 6.85,9.11 7.45,10.13C8.6,12.12 9.13,12.55 9.5,12.34C10.1,12.03 9.93,9.53 9.93,9.53C9.93,9.53 9.94,8.62 9.64,8.22C9.41,7.91 8.97,7.81 8.78,7.79C8.62,7.77 8.88,7.41 9.21,7.24C9.71,7 10.58,7 11.62,7C12.43,7 12.66,7.06 12.97,7.13C13.93,7.36 13.6,8.25 13.6,10.37C13.6,11.06 13.5,12 13.97,12.33C14.18,12.47 14.7,12.35 16,10.16C16.6,9.12 17.06,7.89 17.06,7.89C17.06,7.89 17.16,7.68 17.31,7.58C17.47,7.5 17.69,7.5 17.69,7.5H20.59C20.59,7.5 21.47,7.4 21.61,7.79C21.76,8.2 21.28,9.17 20.09,10.74C18.15,13.34 17.93,13.1 19.54,14.6Z" />
    </svg>
    <svg id="phone-in-talk" viewBox="0 0 24 24">
        <path d="M15,12H17A5,5 0 0,0 12,7V9A3,3 0 0,1 15,12M19,12H21C21,7 16.97,3 12,3V5C15.86,5 19,8.13 19,12M20,15.5C18.75,15.5 17.55,15.3 16.43,14.93C16.08,14.82 15.69,14.9 15.41,15.18L13.21,17.38C10.38,15.94 8.06,13.62 6.62,10.79L8.82,8.59C9.1,8.31 9.18,7.92 9.07,7.57C8.7,6.45 8.5,5.25 8.5,4A1,1 0 0,0 7.5,3H4A1,1 0 0,0 3,4A17,17 0 0,0 20,21A1,1 0 0,0 21,20V16.5A1,1 0 0,0 20,15.5Z" />
    </svg>
    <svg id="arrow-right" viewBox="0 0 24 24">
        <path d="M4,11V13H16L10.5,18.5L11.92,19.92L19.84,12L11.92,4.08L10.5,5.5L16,11H4Z" />
    </svg>

    <svg id="dental-treatment" viewBox="0 0 100 125">
        <path d="M25.399,15.729c-6.05,6.05-6.05,15.9,0,21.95c2.77,2.77,6.34,4.25,9.98,4.49v6.99h-5.21v35.05c0,2.54,2.06,4.6,4.6,4.6   h3.21c2.54,0,4.6-2.06,4.6-4.6v-35.05h-5.2v-6.99c3.63-0.24,7.2-1.72,9.97-4.49c2.93-2.93,4.54-6.83,4.54-10.98   c0-4.14-1.61-8.04-4.54-10.97C41.299,9.679,31.459,9.679,25.399,15.729z M40.579,51.159v33.05c0,1.43-1.17,2.6-2.6,2.6h-3.21   c-1.43,0-2.6-1.17-2.6-2.6v-33.05H40.579z M45.999,36.329c-5.3,5.31-13.94,5.31-19.25,0c-5.31-5.31-5.31-13.95,0-19.25   c5.31-5.31,13.94-5.31,19.25,0c2.58,2.57,3.99,5.99,3.99,9.62C49.989,30.339,48.579,33.759,45.999,36.329z"/><rect x="26.785" y="22.749" transform="matrix(0.8321 -0.5547 0.5547 0.8321 -7.161 23.8462)" width="18.028" height="2"/><rect x="37.799" y="23.73" transform="matrix(-0.537 -0.8436 0.8436 -0.537 34.1165 79.2222)" width="2" height="13.038"/><path d="M78.139,18.269h-11.15c-2.69,0-4.87,2.18-4.87,4.87v2.72c0,2.69,2.18,4.87,4.87,4.87h3.04v18.23c0,0.07,0.03,0.13,0.04,0.2   h-5.25v35.05c0,2.54,2.07,4.6,4.61,4.6h3.2c2.54,0,4.61-2.06,4.61-4.6v-35.05h-5.25c0.01-0.07,0.04-0.13,0.04-0.2v-17.42   c0-0.12-0.03-0.23-0.06-0.34v-1.62h-0.07c-0.07-0.47-0.47-0.85-0.97-0.85h-3.94c-1.58,0-2.87-1.28-2.87-2.87v-2.72   c0-1.59,1.29-2.87,2.87-2.87h11.15c0.55,0,1-0.45,1-1C79.139,18.709,78.689,18.269,78.139,18.269z M75.239,51.159v33.05   c0,1.43-1.17,2.6-2.61,2.6h-3.2c-1.44,0-2.61-1.17-2.61-2.6v-33.05H75.239z M70.129,31.119c-0.02,0.043-0.037-0.141-0.052-0.39   h0.052V31.119z"/>
    </svg>
    <svg id="teeth-restoration" viewBox="0 0 100 125">
        <path d="M69.079,5.012c-4.488,0-7.561,1.449-10.532,2.85C55.902,9.11,53.404,10.288,50,10.289   c-3.405-0.001-5.903-1.179-8.548-2.427c-2.664-1.256-5.418-2.542-9.192-2.796c-0.499-0.062-0.943-0.081-1.326-0.053   c-0.004,0-0.008,0-0.012,0c-12.951,0-23.488,10.536-23.488,23.487c0,5.759,1.996,10.332,3.927,14.756   c1.83,4.193,3.559,8.153,3.773,13.149c0.045,1.052,0.085,2.155,0.126,3.293c0.519,14.297,1.23,33.878,14.427,35.278   C29.845,94.992,29.999,95,30.152,95c0,0,0,0,0.001,0c4.553-0.001,6.453-6.671,8.653-14.393c2.414-8.476,5.151-18.083,11.13-18.272   l0.028-0.002l0.109,0.002c5.972,0.189,8.708,9.796,11.122,18.272C63.393,88.33,65.292,95,69.846,95c0,0,0.001,0,0.001,0   c0.152,0,0.308-0.008,0.464-0.025c13.199-1.4,13.909-20.982,14.428-35.28c0.041-1.138,0.081-2.24,0.126-3.291   c0.214-4.996,1.943-8.956,3.773-13.148c1.931-4.423,3.928-8.997,3.928-14.756C92.566,15.548,82.03,5.012,69.079,5.012z    M85.889,42.055c-1.86,4.26-3.782,8.665-4.021,14.22c-0.045,1.058-0.085,2.166-0.127,3.311   c-0.479,13.201-1.135,31.28-11.746,32.405c-0.05,0.005-0.1,0.008-0.148,0.008c0,0,0,0,0,0c-2.288,0-4.136-6.49-5.767-12.215   c-2.695-9.464-5.75-20.19-13.942-20.45l-0.174-0.002l-0.13,0.003c-8.163,0.258-11.218,10.985-13.914,20.448   C34.288,85.51,32.44,91.999,30.152,92c-0.048,0-0.098-0.003-0.147-0.008c-10.61-1.125-11.266-19.203-11.745-32.403   c-0.042-1.146-0.082-2.255-0.127-3.313c-0.238-5.554-2.161-9.96-4.021-14.22c-1.891-4.332-3.677-8.423-3.677-13.556   c0-11.296,9.191-20.487,20.487-20.487c0.519,0,1.013,0.027,1.492,0.07c4.926,0.828,17.539,6.808,25.101,10.806   c0.224,0.118,0.463,0.174,0.7,0.174c0.538,0,1.059-0.291,1.328-0.799c0.387-0.733,0.107-1.64-0.625-2.028   c-0.703-0.371-3.089-1.624-6.218-3.164c2.745-0.437,4.967-1.477,7.128-2.497c2.795-1.318,5.436-2.563,9.252-2.563   c11.296,0,20.487,9.19,20.487,20.487C89.566,33.632,87.78,37.724,85.889,42.055z"/>
    </svg>
    <svg id="tooth-removal" viewBox="0 0 100 125">
        <path d="M28.2475681,55.277771c-0.3476563-0.328125-0.3964844-0.862793-0.1162109-1.2490234l1.7802734-2.4501953  c0.3085938-0.4238281,0.9013672-0.5180664,1.3271484-0.2099609c0.4238281,0.3085938,0.5185547,0.9023438,0.2099609,1.3271484  l-1.2900391,1.7749023l1.5957031,1.5078125c0.3466816,0.3276367,0.3964863,0.8618164,0.1162109,1.2480469l-1.2890625,1.7783203  l1.595705,1.5092773c0.3466797,0.3276367,0.3964844,0.8613281,0.1171875,1.2475586l-1.2910175,1.7832031l1.5976582,1.5131836  c0.3808594,0.3608398,0.3974609,0.9624023,0.0361328,1.3432617c-0.1865234,0.1972656-0.4375,0.296875-0.689455,0.296875  c-0.234375,0-0.4697266-0.0864258-0.6533203-0.2602539l-2.2021484-2.0859375  c-0.3457031-0.328125-0.3955078-0.8613281-0.1162109-1.2470703l1.2910156-1.7827148l-1.5966797-1.5097656  c-0.3466797-0.328125-0.3964844-0.8618164-0.1162109-1.2480469l1.2890625-1.7783203L28.2475681,55.277771z M80.4848709,18.4569702  L62.957531,42.6080933l3.1542931,5.6003418c1.0083008,1.7919922,0.4587402,6.4602051,0.1166992,8.2800293  c0.7641602,1.418457,1.0136719,3.2336426,0.4526367,5.6188965c-0.449707,1.909668-1.6254883,4.7792969-3.0683556,7.6359863  c1.0844688-0.3400879,2.3378868-0.638916,4.4677696-0.638916c2.5605469,0,3.8583984,0.4316406,5.1142578,0.8486328  c1.1630859,0.3867188,2.2607422,0.7514648,4.5146484,0.7514648c0.5244141,0,0.9501953,0.425293,0.9501953,0.9501953  s-0.4257813,0.9501953-0.9501953,0.9501953c-2.5605469,0-3.8583984-0.4316406-5.1142578-0.8486328  c-1.1630859-0.3867188-2.2607422-0.7514648-4.5146484-0.7514648c-2.2548828,0-3.3535156,0.3647461-4.5165977,0.7514648  c-0.390625,0.1296387-0.7902832,0.2593994-1.2255859,0.378418c-0.3549805,0.6297607-0.7143555,1.2490234-1.0791016,1.8374023  c-1.0019531,4.9111328-3.4833984,13.6123047-8.9951172,18.0390625c-0.3652344,0.293457-0.8066406,0.4428711-1.2539063,0.4428711  c-0.3623047,0-0.7275391-0.0976563-1.0605469-0.2944336c-0.6972656-0.4125977-1.0605469-1.1757813-0.9248047-1.9453125  c0.53125-3.019043,1.1757813-8.7460938-0.4023438-13.519043c-2.9492188,3.9785156-3.8886719,9.5869141-4.1865234,12.6069336  c-0.0888672,0.9116211-0.7431641,1.6621094-1.6669922,1.9111328c-0.9765625,0.2651367-1.9892578-0.0820313-2.5683594-0.8857422  c-3.8203125-5.2944336-4.3544922-12.9838867-4.2158203-18.0235596c-0.7319336-0.1558838-1.3344727-0.3525391-1.9228516-0.5477295  c-1.1640625-0.3867188-2.2636738-0.7514648-4.5195332-0.7514648s-3.3554688,0.3647461-4.5195313,0.7514648  c-1.2568359,0.4169922-2.5556641,0.8486328-5.1191406,0.8486328c-0.5244141,0-0.9501953-0.425293-0.9501953-0.9501953  s0.4257813-0.9501953,0.9501953-0.9501953c2.2558594,0,3.3554688-0.3647461,4.5195313-0.7514648  c1.2568359-0.4169922,2.5556641-0.8486328,5.1191406-0.8486328s3.8623066,0.4316406,5.1191425,0.8486328  c0.4555664,0.1513672,0.9038086,0.298584,1.4130859,0.4226074c0.0500488-0.7634277,0.1091309-1.427002,0.1640625-1.9387207  c-1.6386719-3.215332-1.7285156-7.5966797-1.6494141-10.6469727c0.1320801-5.1031494,3.8161621-6.8815918,7.262207-7.4829102  c0.2685547-1.7695313,0.7299805-3.5922852,1.480957-4.4521484l5.4570313-6.2426758  c0.0595703-0.0734863,0.1330566-0.1347656,0.2023926-0.199707l-7.5275879-27.019043  c-0.4355469-1.5673828,0.4833984-3.1972656,2.0498047-3.6337891l3.9667969-1.1054692  c1.5693359-0.4360352,3.1982422,0.4843755,3.6337891,2.0507817L57.59132,32.9472046l14.786129-20.3745117  c0.9541016-1.315918,2.8017578-1.6113281,4.1201172-0.6547852l3.3339844,2.4194336  C81.1469803,15.2924204,81.439949,17.140564,80.4848709,18.4569702z M55.5136833,46.1452026  c0.1782227,0.0175781,0.3547363,0.0324707,0.5302734,0.0270996c1.7463379-0.0522461,3.2993164-1.2045898,3.840332-2.9086914  c0.0410156-0.1289063,0.0952148-0.2504883,0.1240234-0.3852539c0.0400391-0.1879883,0.0495605-0.3764648,0.0639648-0.5649414  c0.015625-0.2072754,0.0136719-0.4121094-0.0014648-0.6171875c-0.0080566-0.1113281-0.0107422-0.2231445-0.027832-0.3330078  c-0.0322266-0.2075195-0.0883789-0.4089355-0.1518555-0.6096191c-0.0969238-0.3059082-0.2231445-0.6022949-0.3913574-0.8835449  c-0.0268555-0.0449219-0.0429688-0.0939941-0.0715332-0.1381836c-0.6074219-0.9370117-1.5439453-1.581543-2.6357422-1.8144531  c-0.2929688-0.0625-0.5849609-0.0927734-0.8730469-0.0927734c-1.4316406,0-2.7558594,0.7436523-3.5163574,1.9272461  c-0.1804199,0.2810059-0.3188477,0.5915527-0.4294434,0.9182129c-0.0512695,0.1520996-0.107666,0.3017578-0.1420898,0.4626465  c-0.0163574,0.0766602-0.0141602,0.1535645-0.026123,0.2304688c-0.0229492,0.1474609-0.0427246,0.2949219-0.0500488,0.4423828  c-0.0085449,0.1706543,0.0012207,0.338623,0.0134277,0.5078125c0.0236816,0.3237305,0.083252,0.640625,0.1818848,0.9501953  c0.1120605,0.3525391,0.2543945,0.6967773,0.4609375,1.015625c0.3120117,0.4814453,0.7133789,0.8823242,1.1757813,1.1931152  c0.1867676,0.1254883,0.3857422,0.2324219,0.5915527,0.326416c0.1213379,0.0554199,0.2497559,0.0947266,0.376709,0.1386719  c0.1623535,0.0561523,0.3212891,0.119873,0.4916992,0.15625c0.012207,0.0026855,0.0239258,0.0014648,0.0361328,0.0039063  C55.2275505,46.1273804,55.3701286,46.1310425,55.5136833,46.1452026z M54.4643669,49.4992065  c-0.7438965,0.548584-1.4506836,1.1398926-2.1118164,1.7766113c0.4138184,0.1855469,0.8259277,0.3747559,1.2172852,0.6000977  c0.8383789-0.2446289,1.6713867-0.3527832,2.4958496-0.3520508C55.5752068,50.8187866,55.0410271,50.1430054,54.4643669,49.4992065z   M50.7846794,38.7658081c1.1977539-1.8903809,3.3813477-3.0153809,5.6726074-2.8122559l-7.1726074-25.7392578  c-0.1552734-0.5576172-0.7363281-0.8862305-1.2939453-0.7294922l-3.9667969,1.1049805  c-0.5576172,0.1552734-0.8847656,0.7363281-0.7294922,1.2944336L50.7846794,38.7658081z M43.4272575,54.3632202l0.2128906,7.8969727  c0.0830078,0.1484375,0.2490234,0.1660156,0.3154297,0.1708984c0.1025391-0.0014648,0.2832031-0.0380859,0.3457031-0.2670898  l0.4785156-1.75c0.8251953-3.0151367,2.269043-5.8049316,4.1889648-8.2249756  c0.2263184-0.2854004,0.4587402-0.5646973,0.6987305-0.8392334c0.2358398-0.2702637,0.4748535-0.5383301,0.7236328-0.7976074  c0.9865723-1.0285645,2.0620117-1.9765625,3.2333984-2.8115234l0.0449219-0.090332l-0.0004883-0.0102539  c-1.1625977-0.4619141-2.1574707-1.2568359-2.8510742-2.3276367c-0.5522461-0.8515625-0.8764648-1.8051758-0.9589844-2.7885742  c-0.0358887-0.4257813-0.0224609-0.8569336,0.0334473-1.2880859L49.594738,41.576355l-4.831543,5.5285645  c-0.3808594,0.4365234-0.706543,1.6289063-0.9421387,2.9667969c-0.0568848,0.3237305-0.1088867,0.6538086-0.154541,0.9863281  c-0.0449219,0.3256836-0.0849609,0.6516113-0.1181641,0.9692383C43.454113,52.9342651,43.4096794,53.7755737,43.4272575,54.3632202z   M64.8747635,58.1452026c-0.1450195-0.465332-0.3740234-0.8894043-0.6721191-1.284668  c-0.8359337-1.1081543-2.2831993-1.963623-4.4521446-2.6650391c-0.3842773-0.1242676-0.793457-0.2436523-1.2233887-0.3591309  c-0.3273926-0.0878906-0.6633301-0.1743164-1.0178223-0.2578125c-0.059082-0.013916-0.119873-0.0163574-0.1791992-0.0285645  c-1.1506348-0.2363281-2.3525391-0.1560059-3.5756836,0.2595215l-0.4248047,0.1450195l-0.3828125-0.237793  c-0.6259766-0.3890381-1.3032227-0.6943359-2-0.9594727c-2.0134277,2.3537598-3.5073242,5.1362305-4.3349609,8.1582031  l-0.4785156,1.75c-0.2685547,0.9824219-1.1337891,1.6518555-2.1513672,1.6655273c-0.0107422,0-0.0214844,0-0.0322266,0  c-1.0048828,0-1.8720703-0.6420898-2.1640625-1.6064453l-0.0400391-0.25L41.52882,54.4169312  c-0.0119629-0.3967285,0.012207-1.171875,0.0898438-2.104248c-4.3320313,0.925293-5.0737305,3.3376465-5.1308594,5.526123  c-0.0429688,1.6806641-0.1757813,6.7949219,1.5605469,9.9550781l0.1455078,0.265625l-0.0351563,0.300293  c-0.0634766,0.5527344-0.1396484,1.3483887-0.1994629,2.2998047c-0.036377,0.5759277-0.0639648,1.2131348-0.0808105,1.8986816  c-0.1176758,4.7712402,0.3977051,11.8549805,3.8632813,16.657959c0.1757813,0.2436523,0.4746094,0.1782227,0.5322266,0.1625977  c0.0947266-0.0253906,0.2548828-0.0932617,0.2714844-0.2626953c0.3945313-3.9980469,1.5332031-9.6333008,4.7216797-13.7783203  c0.3945313-0.5117188,1.0390625-0.7631836,1.6816406-0.6611328c0.6435547,0.1044922,1.1757813,0.5483398,1.3886719,1.1586914  c1.8183594,5.2202148,1.1328125,11.4467773,0.5605469,14.699707c0.0019531-0.0039063,0.0048828-0.0053711,0.0097656-0.0053711  c0.0166016,0,0.0458984,0.0146484,0.0810547,0.0200195c5.1933594-4.1225586,7.5136719-12.4951172,8.4414063-17.1210938  l0.0341797-0.1699219l0.0917969-0.1464844c0.1130371-0.1809082,0.2250977-0.3769531,0.3378906-0.5637207  c0.4016113-0.6643066,0.7993164-1.3552246,1.1870117-2.0688477c0.8227539-1.513916,1.5881348-3.0839844,2.2253418-4.5532227  c0.7111778-1.6398926,1.2644005-3.1466064,1.5251427-4.2546387C65.1552811,60.2958374,65.1836014,59.1358032,64.8747635,58.1452026z   M61.6140251,44.0944214c-0.878418,2.3974609-3.1672363,3.9919434-5.692627,3.9919434  c-0.0551758,0-0.111084-0.0070801-0.1665039-0.0087891c1.0668945,1.1706543,1.9914551,2.449707,2.7893066,3.800293  c2.277832,0.5727539,4.479248,1.3612061,6.0664024,2.6710205c0.244873-2.0941162,0.2834473-4.6290283-0.1550293-5.4083252  L61.6140251,44.0944214z M78.7143631,15.8744516l-3.3320313-2.418457c-0.4707031-0.3408203-1.1279297-0.2358398-1.4677734,0.2329102  L57.5886345,36.1859741c1.4123535,0.4038086,2.6276855,1.2687988,3.4333496,2.5126953  c0.4042969,0.623291,0.6799316,1.3027344,0.8344727,2.0070801c0.0229492,0.0310059,0.0422363,0.0646973,0.0637207,0.0966797  l17.0275841-23.4611816C79.2876053,16.8729858,79.1831131,16.2147827,78.7143631,15.8744516z"/>
    </svg>
    <svg id="dental-prosthetics" viewBox="0 0 100 125">
        <path d="M63.918,28.617c-0.621,0-1.225,0.039-1.848,0.121c-0.028,0.004-0.053,0.014-0.081,0.019c-0.03,0.006-0.06,0.006-0.09,0.013   c-0.021,0.005-0.04,0.016-0.06,0.022c-0.048,0.014-0.094,0.032-0.139,0.051c-0.045,0.019-0.089,0.038-0.131,0.06   c-0.042,0.023-0.082,0.048-0.121,0.074c-0.04,0.027-0.08,0.054-0.117,0.085c-0.036,0.03-0.069,0.061-0.102,0.094   c-0.034,0.034-0.067,0.067-0.097,0.104c-0.03,0.037-0.057,0.075-0.084,0.114c-0.026,0.038-0.051,0.076-0.073,0.116   c-0.023,0.043-0.043,0.087-0.062,0.131c-0.018,0.042-0.035,0.084-0.049,0.128c-0.015,0.046-0.026,0.092-0.036,0.14   c-0.01,0.047-0.019,0.093-0.024,0.141c-0.005,0.047-0.007,0.094-0.008,0.142c-0.001,0.051,0,0.101,0.004,0.152   c0.002,0.021-0.001,0.041,0.002,0.063c0.004,0.03,0.015,0.057,0.02,0.086c0.005,0.028,0.005,0.056,0.012,0.083   c0.237,0.941,0.357,1.882,0.357,2.798c0,6.165-5.02,11.181-11.191,11.181s-11.191-5.015-11.191-11.181   c0-0.916,0.121-1.857,0.357-2.798c0.007-0.028,0.007-0.056,0.012-0.083c0.006-0.029,0.016-0.056,0.02-0.086   c0.003-0.021,0-0.042,0.002-0.063c0.005-0.051,0.005-0.101,0.004-0.152c-0.001-0.048-0.002-0.095-0.008-0.142   c-0.005-0.048-0.014-0.094-0.024-0.141c-0.01-0.048-0.021-0.095-0.036-0.141c-0.014-0.044-0.031-0.085-0.049-0.127   c-0.019-0.045-0.039-0.089-0.062-0.132c-0.022-0.04-0.047-0.078-0.073-0.116c-0.027-0.039-0.054-0.078-0.084-0.114   c-0.03-0.037-0.063-0.07-0.097-0.104c-0.033-0.033-0.066-0.065-0.102-0.094c-0.037-0.031-0.077-0.058-0.117-0.085   c-0.04-0.026-0.079-0.052-0.122-0.074c-0.042-0.023-0.086-0.042-0.131-0.06c-0.046-0.019-0.091-0.036-0.139-0.051   c-0.021-0.006-0.039-0.017-0.06-0.022c-0.03-0.007-0.059-0.007-0.089-0.013c-0.028-0.005-0.053-0.015-0.082-0.019   c-0.623-0.081-1.227-0.121-1.848-0.121c-9.653,0-17.506,7.853-17.506,17.507c0,4.277,1.473,7.647,2.898,10.906   c1.323,3.025,2.572,5.882,2.723,9.46c0.034,0.776,0.063,1.588,0.094,2.429c0.385,10.551,0.912,25.001,10.852,26.059   C35.287,94.992,35.429,95,35.568,95c3.561,0,4.989-5.012,6.633-10.78c1.726-6.056,3.682-12.92,7.841-13.048   c4.075,0.129,6.031,6.992,7.757,13.048c1.708,5.992,3.18,11.169,7.058,10.757c9.94-1.057,10.467-15.507,10.852-26.059   c0.031-0.84,0.06-1.653,0.094-2.43c0.151-3.576,1.4-6.433,2.723-9.458c1.425-3.259,2.898-6.629,2.898-10.906   C81.424,36.47,73.571,28.617,63.918,28.617z M75.829,55.851c-1.372,3.14-2.792,6.386-2.967,10.511   c-0.034,0.782-0.063,1.602-0.094,2.449c-0.346,9.475-0.819,22.453-8.222,23.24c-0.02,0.002-0.04,0.003-0.059,0.003   c-1.396,0-2.875-5.19-3.859-8.641c-2.002-7.024-4.271-14.986-10.494-15.182c-0.031-0.001-0.238-0.001-0.268,0   c-6.224,0.196-8.493,8.158-10.494,15.182c-0.984,3.451-2.462,8.641-3.859,8.641c-0.019,0-0.039-0.001-0.059-0.003   c-7.403-0.787-7.876-13.765-8.222-23.24c-0.031-0.847-0.06-1.667-0.094-2.448c-0.175-4.126-1.595-7.373-2.967-10.512   c-1.364-3.119-2.652-6.066-2.652-9.728c0-7.998,6.481-14.507,14.467-14.56c-0.078,0.6-0.118,1.198-0.118,1.79   c0,7.787,6.341,14.123,14.133,14.123s14.133-6.336,14.133-14.123c0-0.592-0.04-1.19-0.118-1.79   c7.986,0.053,14.467,6.561,14.467,14.56C78.482,49.785,77.193,52.732,75.829,55.851z"/><path d="M50,25.38c7.791,0,14.129-6.338,14.129-14.129c0-1.836-0.353-3.631-1.051-5.337c-0.152-0.371-0.448-0.664-0.821-0.811   c-0.374-0.147-0.791-0.136-1.154,0.031c-0.459,0.21-0.913,0.424-1.365,0.638C56.731,7.19,53.891,8.53,50,8.531   c-3.891-0.001-6.731-1.341-9.739-2.759c-0.452-0.214-0.906-0.428-1.365-0.638c-0.365-0.167-0.78-0.178-1.154-0.031   c-0.373,0.147-0.669,0.441-0.821,0.811c-0.697,1.706-1.051,3.501-1.051,5.337C35.871,19.042,42.209,25.38,50,25.38z M39.157,8.504   c3.121,1.472,6.365,2.968,10.843,2.97c4.478-0.001,7.722-1.498,10.843-2.97c0.229,0.896,0.344,1.815,0.344,2.747   c0,6.169-5.019,11.187-11.187,11.187S38.813,17.42,38.813,11.251C38.813,10.319,38.928,9.4,39.157,8.504z"/><path d="M50.385,26.425c-0.812,0-1.471,0.658-1.471,1.471v9.848l-2.343-2.343c-0.575-0.575-1.506-0.575-2.08,0   c-0.575,0.574-0.575,1.506,0,2.08l4.854,4.855c0.276,0.276,0.65,0.431,1.04,0.431s0.764-0.155,1.04-0.431l4.855-4.855   c0.575-0.574,0.575-1.506,0-2.08c-0.575-0.575-1.506-0.575-2.08,0l-2.344,2.343v-9.848C51.856,27.083,51.197,26.425,50.385,26.425z   "/>
    </svg>
    <svg id="occlusion-correction" viewBox="0 0 100 125">
        <path d="M93.5,34.473h-6.109c0.194-1.171,0.305-2.394,0.305-3.684c0-11.656-9.483-21.14-21.14-21.14   c-4.045,0-6.93,1.361-9.476,2.562c-2.346,1.106-4.562,2.151-7.565,2.152c-3.005-0.001-5.221-1.046-7.567-2.152   c-2.545-1.201-5.431-2.562-9.476-2.562c-11.656,0-21.14,9.483-21.14,21.14c0,1.29,0.112,2.513,0.305,3.684H6.5   c-0.829,0-1.5,0.672-1.5,1.5s0.671,1.5,1.5,1.5h5.836c0.675,2.317,1.601,4.461,2.518,6.562c1.629,3.731,3.167,7.255,3.357,11.688   c0.04,0.939,0.076,1.923,0.113,2.939c0.465,12.83,1.103,30.4,13.03,31.666c0.146,0.016,0.29,0.023,0.431,0.023c0,0,0,0,0.001,0   c4.188-0.001,5.9-6.013,7.883-12.973c2.141-7.519,4.568-16.04,9.786-16.205l-0.047-1.499l0.167,1.499   c5.218,0.165,7.645,8.687,9.785,16.205c1.982,6.961,3.694,12.973,7.883,12.973c0,0,0.001,0,0.001,0   c0.141,0,0.286-0.008,0.431-0.023c11.927-1.266,12.564-18.835,13.03-31.664c0.037-1.018,0.073-2.002,0.113-2.941   c0.19-4.433,1.728-7.956,3.357-11.688c0.917-2.101,1.842-4.245,2.518-6.562H93.5c0.829,0,1.5-0.672,1.5-1.5   S94.329,34.473,93.5,34.473z M14.333,30.789c0-10.002,8.137-18.14,18.14-18.14c3.373,0,5.716,1.104,8.196,2.274   c2.542,1.199,5.169,2.438,8.847,2.439c3.676-0.001,6.304-1.24,8.845-2.439c2.48-1.17,4.823-2.274,8.196-2.274   c10.002,0,18.14,8.138,18.14,18.14c0,1.295-0.139,2.51-0.362,3.684H57.032v-4.518c0-0.828-0.671-1.5-1.5-1.5H43.497   c-0.829,0-1.5,0.672-1.5,1.5v4.518H14.694C14.472,33.299,14.333,32.084,14.333,30.789z M44.997,37.473h9.035v3.018h-9.035V37.473z    M44.997,34.473v-3.018h9.035v3.018H44.997z M81.425,42.834c-1.667,3.819-3.391,7.768-3.604,12.759   c-0.041,0.946-0.077,1.938-0.114,2.961c-0.426,11.732-1.009,27.8-10.349,28.791c-0.039,0.004-0.08,0.031-0.116,0.006   c-1.923,0-3.628-5.985-4.998-10.795c-2.422-8.506-5.168-18.146-12.576-18.381c-0.002,0-0.111-0.003-0.113-0.003   c-0.003-0.001-0.008-0.001-0.014-0.001c-0.045,0-0.155,0.003-0.181,0.004c-7.408,0.234-10.154,9.875-12.577,18.381   c-1.37,4.81-3.075,10.795-4.998,10.795c-0.038,0-0.076-0.002-0.115-0.006c-9.34-0.991-9.923-17.06-10.348-28.793   c-0.037-1.022-0.073-2.013-0.114-2.959c-0.214-4.991-1.938-8.939-3.604-12.759c-0.783-1.795-1.539-3.546-2.131-5.361h26.524v4.518   c0,0.828,0.671,1.5,1.5,1.5h12.035c0.829,0,1.5-0.672,1.5-1.5v-4.518h26.524C82.964,39.288,82.208,41.039,81.425,42.834z"/>
    </svg>
    <svg id="tooth-implantation" viewBox="0 0 100 125">
        <path d="M62.593,5.715c-4.604,0-9.026,1.578-12.593,4.47c-3.567-2.892-7.989-4.47-12.594-4.47c-11.062,0-20.062,9-20.062,20.061  c0,8.658,2.488,12.886,4.684,16.617c1.37,2.327,2.553,4.336,3.01,7.206c0.561,3.514,3.063,6.132,7.445,7.854  c0.504,1.162,1.723,4.051,2.947,7.558c-0.691,0.081-1.274,0.649-1.328,1.38c-0.06,0.826,0.562,1.545,1.388,1.604  c0.323,0.023,0.646,0.032,0.968,0.053c0.676,2.008,1.317,3.885,1.934,5.649c-0.721,0.057-1.33,0.629-1.385,1.381  c-0.06,0.826,0.562,1.545,1.388,1.604c0.358,0.026,0.717,0.038,1.075,0.059c0.747,2.075,1.453,3.96,2.127,5.652  c-0.586,0.168-1.045,0.683-1.092,1.328c-0.06,0.827,0.562,1.545,1.388,1.604c0.315,0.023,0.63,0.035,0.944,0.052  c2.646,6.063,4.822,8.906,7.163,8.906c2.495,0,4.802-3.229,7.692-10.146c0.413-0.093,0.83-0.167,1.242-0.27  c0.804-0.2,1.293-1.014,1.093-1.818c-0.136-0.547-0.561-0.941-1.068-1.079c0.7-1.817,1.437-3.829,2.218-6.042  c0.435-0.101,0.87-0.195,1.304-0.304c0.804-0.2,1.293-1.014,1.094-1.817c-0.154-0.619-0.672-1.048-1.269-1.123  c0.587-1.709,1.197-3.516,1.838-5.432c0.063-0.186,0.125-0.367,0.188-0.551c0.384-0.091,0.769-0.174,1.151-0.269  c0.804-0.2,1.293-1.014,1.094-1.817c-0.14-0.562-0.581-0.963-1.106-1.09c0.886-2.354,1.668-4.2,2.047-5.074  c4.384-1.722,6.886-4.34,7.446-7.854c0.457-2.87,1.64-4.88,3.01-7.207c2.195-3.73,4.684-7.959,4.684-16.616  C82.656,14.715,73.656,5.715,62.593,5.715z M50.015,91.285c-0.987-0.164-2.374-2.519-3.867-5.823  c2.687-0.015,5.358-0.244,8.005-0.654C52.553,88.455,51.055,91.11,50.015,91.285z M55.511,81.544  c-3.504,0.673-7.068,0.978-10.651,0.907c-0.723-1.771-1.45-3.675-2.152-5.588c0.434,0.007,0.868,0.023,1.302,0.023  c4.615,0,9.205-0.417,13.729-1.242C57.019,77.638,56.265,79.651,55.511,81.544z M58.899,72.365  c-5.669,1.173-11.459,1.668-17.278,1.48c-0.71-2.007-1.371-3.939-1.948-5.647c0.938,0.027,1.876,0.052,2.813,0.052  c6.202,0,12.367-0.611,18.432-1.809C60.35,68.137,59.661,70.18,58.899,72.365z M62.048,63.141  c-7.666,1.665-15.51,2.342-23.395,2.018c-0.865-2.572-1.751-4.873-2.438-6.564c3.701,0.871,8.287,1.318,13.784,1.318  s10.084-0.447,13.785-1.318C63.283,59.829,62.677,61.387,62.048,63.141z M75.387,40.871c-1.396,2.373-2.84,4.826-3.387,8.256  c-0.566,3.552-4.843,7.785-22,7.785s-21.433-4.233-21.999-7.785c-0.547-3.43-1.99-5.883-3.387-8.255  c-2.099-3.567-4.27-7.255-4.27-15.096c0-9.407,7.653-17.061,17.062-17.061c4.295,0,8.406,1.618,11.574,4.554  c0.574,0.533,1.465,0.533,2.039,0c3.168-2.937,7.278-4.554,11.573-4.554c9.409,0,17.063,7.654,17.063,17.061  C79.656,33.616,77.485,37.305,75.387,40.871z"/>
    </svg>
    <svg id="dental-hygiene" viewBox="0 0 100 125">
        <path d="M91.529,18.45l-3.658-3.41c-0.768-0.716-1.758-1.073-2.727-1.071c-0.746-0.001-1.498,0.223-2.154,0.643   c-0.033-0.033-8.135-7.606-8.135-7.606c-0.77-0.717-1.76-1.074-2.729-1.072c-1.039-0.002-2.09,0.415-2.873,1.225L69.25,7.153   l-0.049,0.05c-0.531,0.575-0.887,1.218-1.145,1.89c-0.248,0.668-0.395,1.363-0.4,2.099c-0.002,0-0.006-0.001-0.008-0.001   c-0.545,0.001-1.07,0.063-1.588,0.204c-0.262,0.073-0.521,0.166-0.791,0.303c-0.268,0.14-0.553,0.32-0.84,0.623   c-0.479,0.533-0.635,1.015-0.762,1.47c-0.115,0.458-0.16,0.907-0.16,1.369c0,0.139,0.014,0.28,0.023,0.422   c-0.537,0.002-1.053,0.063-1.564,0.202c-0.26,0.073-0.521,0.166-0.791,0.304c-0.268,0.139-0.555,0.319-0.842,0.624l0.002-0.002   c-0.479,0.533-0.635,1.015-0.76,1.47c-0.115,0.457-0.16,0.906-0.16,1.367c0,0.155,0.014,0.313,0.025,0.47   c-0.68,0.049-1.316,0.218-1.924,0.475c-0.709,0.308-1.377,0.726-1.955,1.338c-0.719,0.767-1.074,1.761-1.072,2.727   c-0.002,1.063,0.428,2.142,1.27,2.928l7.674,7.156c-0.059,0.033-14.676,7.415-14.676,7.415c-0.652,0.33-1.314,0.766-1.961,1.247   c-0.645,0.483-1.25,0.995-1.75,1.524L8.283,83.93l0.002-0.001c-0.725,0.767-1.086,1.764-1.084,2.734   c-0.002,1.061,0.428,2.138,1.27,2.921l3.654,3.41c0.77,0.719,1.764,1.074,2.732,1.073c1.057,0.001,2.133-0.422,2.92-1.259   l36.764-39.105c0.252-0.271,0.734-0.691,1.232-1.062c0.498-0.374,1.037-0.717,1.369-0.882l14.504-7.32   c0.652-0.331,1.314-0.768,1.961-1.251c0.645-0.485,1.25-0.999,1.75-1.533l16.369-17.552c0.717-0.769,1.074-1.759,1.072-2.728   C92.801,20.316,92.373,19.236,91.529,18.45z M59.795,23.994c0,0,0.451,0.052,0.658,0.052c0.764,0.008,1.605-0.269,2.217-0.873   c0.619-0.597,0.918-1.451,0.908-2.225c0-0.29-0.158-1.192-0.16-1.364c0.045-0.003,0.92,0.075,1.127,0.075   c0.764,0.007,1.607-0.27,2.219-0.874c0.617-0.597,0.916-1.451,0.906-2.224c0-0.29-0.102-0.852-0.102-0.852   c-0.035-0.152-0.057-0.342-0.059-0.515c0.045-0.003,0.922,0.075,1.129,0.075c0.764,0.007,1.605-0.27,2.217-0.874   c0.617-0.597,0.916-1.451,0.906-2.224c0-0.287-0.086-0.719-0.107-0.959c-0.016-0.158,0.045-0.45,0.146-0.71   c0.096-0.26,0.242-0.488,0.324-0.571h0.002l0.002-0.001l8.041,7.499v0.002l0.002,0.001l-1.875,2.01l-3.656-3.409   c-0.504-0.471-1.295-0.443-1.766,0.062c-0.473,0.505-0.443,1.296,0.061,1.767l3.656,3.409l-1.705,1.828L70.5,19.008   c-0.506-0.471-1.297-0.443-1.768,0.062s-0.443,1.296,0.063,1.767l4.387,4.091l-6.646,7.128l-0.004,0.001l0,0l-8.041-7.498v-0.004   v-0.001c0.086-0.096,0.328-0.273,0.604-0.388C59.367,24.043,59.674,23.989,59.795,23.994z M72.434,38.927   c-0.25,0.271-0.729,0.691-1.227,1.063c-0.494,0.373-1.033,0.716-1.361,0.879L55.34,48.19c-0.652,0.331-1.314,0.767-1.961,1.248   c-0.645,0.483-1.25,0.994-1.752,1.525l-36.76,39.103l-0.01,0.002l-0.006-0.001l-3.648-3.402l36.756-39.099   c0.252-0.271,0.734-0.69,1.232-1.062c0.498-0.373,1.037-0.716,1.367-0.88l14.506-7.321c0.652-0.332,1.314-0.769,1.961-1.252   c0.645-0.485,1.248-0.999,1.75-1.533l0.68-0.729c0.002-0.001,0.002-0.001,0.002-0.002l0,0v-0.001l0.002,0.001l9.74-10.445   l5.943-6.373h0.002v-0.002l3.654,3.406v0.004l0.002,0.001L72.434,38.927z"/>
    </svg>

</defs></svg>