<svg><defs>
    <svg id="home" viewBox="0 0 24 24">
        <path d="M10,20V14H14V20H19V12H22L12,3L2,12H5V20H10Z" />
    </svg>
    <svg id="account" viewBox="0 0 24 24">
        <path d="M12,4A4,4 0 0,1 16,8A4,4 0 0,1 12,12A4,4 0 0,1 8,8A4,4 0 0,1 12,4M12,14C16.42,14 20,15.79 20,18V20H4V18C4,15.79 7.58,14 12,14Z" />
    </svg>
    <svg id="lock" viewBox="0 0 24 24">
        <path d="M12,17A2,2 0 0,0 14,15C14,13.89 13.1,13 12,13A2,2 0 0,0 10,15A2,2 0 0,0 12,17M18,8A2,2 0 0,1 20,10V20A2,2 0 0,1 18,22H6A2,2 0 0,1 4,20V10C4,8.89 4.9,8 6,8H7V6A5,5 0 0,1 12,1A5,5 0 0,1 17,6V8H18M12,3A3,3 0 0,0 9,6V8H15V6A3,3 0 0,0 12,3Z" />
    </svg>
    <svg id="dots-horizontal" viewBox="0 0 24 24">
        <path d="M16,12A2,2 0 0,1 18,10A2,2 0 0,1 20,12A2,2 0 0,1 18,14A2,2 0 0,1 16,12M10,12A2,2 0 0,1 12,10A2,2 0 0,1 14,12A2,2 0 0,1 12,14A2,2 0 0,1 10,12M4,12A2,2 0 0,1 6,10A2,2 0 0,1 8,12A2,2 0 0,1 6,14A2,2 0 0,1 4,12Z" />
    </svg>
    <svg id="dots-vertical" viewBox="0 0 24 24">
        <path d="M12,16A2,2 0 0,1 14,18A2,2 0 0,1 12,20A2,2 0 0,1 10,18A2,2 0 0,1 12,16M12,10A2,2 0 0,1 14,12A2,2 0 0,1 12,14A2,2 0 0,1 10,12A2,2 0 0,1 12,10M12,4A2,2 0 0,1 14,6A2,2 0 0,1 12,8A2,2 0 0,1 10,6A2,2 0 0,1 12,4Z" />
    </svg>
    <svg id="logout-variant" viewBox="0 0 24 24">
        <path d="M14.08,15.59L16.67,13H7V11H16.67L14.08,8.41L15.5,7L20.5,12L15.5,17L14.08,15.59M19,3A2,2 0 0,1 21,5V9.67L19,7.67V5H5V19H19V16.33L21,14.33V19A2,2 0 0,1 19,21H5C3.89,21 3,20.1 3,19V5C3,3.89 3.89,3 5,3H19Z" />
    </svg>
    <svg id="chart-bar" viewBox="0 0 24 24">
        <path d="M22,21H2V3H4V19H6V10H10V19H12V6H16V19H18V14H22V21Z" />
    </svg>
    <svg id="file-excel" viewBox="0 0 24 24">
        <path d="M6,2H14L20,8V20A2,2 0 0,1 18,22H6A2,2 0 0,1 4,20V4A2,2 0 0,1 6,2M13,3.5V9H18.5L13,3.5M17,11H13V13H14L12,14.67L10,13H11V11H7V13H8L11,15.5L8,18H7V20H11V18H10L12,16.33L14,18H13V20H17V18H16L13,15.5L16,13H17V11Z" />
    </svg>
</defs></svg>